<svg xmlns="http://www.w3.org/2000/svg" viewBox="0 0 1440 640"><svg viewBox="0 0 1440 320" height="320" width="1440" y="0"><path fill="#fca367" fill-opacity="1" d="M0,96L48,90.7C96,85,192,75,288,101.3C384,128,480,192,576,224C672,256,768,256,864,234.7C960,213,1056,171,1152,144C1248,117,1344,107,1392,101.3L1440,96L1440,320L1392,320C1344,320,1248,320,1152,320C1056,320,960,320,864,320C768,320,672,320,576,320C480,320,384,320,288,320C192,320,96,320,48,320L0,320Z"/></svg><svg viewBox="0 0 1440 320" height="320" width="1440" y="320"><path fill="#fca367" fill-opacity="1" d="M0,96L48,90.7C96,85,192,75,288,101.3C384,128,480,192,576,224C672,256,768,256,864,234.7C960,213,1056,171,1152,144C1248,117,1344,107,1392,101.3L1440,96L1440,0L1392,0C1344,0,1248,0,1152,0C1056,0,960,0,864,0C768,0,672,0,576,0C480,0,384,0,288,0C192,0,96,0,48,0L0,0Z"/></svg></svg>